<svg id="visual" viewBox="0 0 900 450" width="900" height="450" xmlns="http://www.w3.org/2000/svg" xmlns:xlink="http://www.w3.org/1999/xlink" version="1.1"><path d="M0 230L129 230L129 251L257 251L257 266L386 266L386 252L514 252L514 237L643 237L643 254L771 254L771 268L900 268L900 267L900 451L900 451L771 451L771 451L643 451L643 451L514 451L514 451L386 451L386 451L257 451L257 451L129 451L129 451L0 451Z" fill="#313137"></path><path d="M0 298L129 298L129 310L257 310L257 321L386 321L386 294L514 294L514 328L643 328L643 316L771 316L771 297L900 297L900 296L900 451L900 451L771 451L771 451L643 451L643 451L514 451L514 451L386 451L386 451L257 451L257 451L129 451L129 451L0 451Z" fill="#2e313d"></path><path d="M0 361L129 361L129 376L257 376L257 380L386 380L386 380L514 380L514 384L643 384L643 368L771 368L771 378L900 378L900 386L900 451L900 451L771 451L771 451L643 451L643 451L514 451L514 451L386 451L386 451L257 451L257 451L129 451L129 451L0 451Z" fill="#313137"></path></svg>