<svg xmlns="http://www.w3.org/2000/svg" version="1.1" xmlns:xlink="http://www.w3.org/1999/xlink" xmlns:svgjs="http://svgjs.com/svgjs" width="1440" height="560" preserveAspectRatio="none" viewBox="0 0 1440 560"><g mask="url(&quot;#SvgjsMask2407&quot;)" fill="none"><rect width="1440" height="560" x="0" y="0" fill="url(#SvgjsLinearGradient2408)"></rect><path d="M0 0L208.31 0L0 156.97z" fill="rgba(255, 255, 255, .1)"></path><path d="M0 156.97L208.31 0L792.1199999999999 0L0 373.5z" fill="rgba(255, 255, 255, .075)"></path><path d="M0 373.5L792.1199999999999 0L862.81 0L0 457.39z" fill="rgba(255, 255, 255, .05)"></path><path d="M0 457.39L862.81 0L1110.35 0L0 471.64z" fill="rgba(255, 255, 255, .025)"></path><path d="M1440 560L1124.83 560L1440 352.15999999999997z" fill="rgba(0, 0, 0, .1)"></path><path d="M1440 352.15999999999997L1124.83 560L982.6999999999999 560L1440 168.27999999999997z" fill="rgba(0, 0, 0, .075)"></path><path d="M1440 168.27999999999997L982.7 560L643.5500000000001 560L1440 63.40999999999997z" fill="rgba(0, 0, 0, .05)"></path><path d="M1440 63.40999999999997L643.55 560L634.8299999999999 560L1440 62.89999999999997z" fill="rgba(0, 0, 0, .025)"></path></g><defs><mask id="SvgjsMask2407"><rect width="1440" height="560" fill="#ffffff"></rect></mask><linearGradient x1="84.72%" y1="-39.29%" x2="15.28%" y2="139.29%" gradientUnits="userSpaceOnUse" id="SvgjsLinearGradient2408"><stop stop-color="rgba(80, 88, 96, 1)" offset="0"></stop><stop stop-color="rgba(61, 61, 61, 1)" offset="0.39"></stop></linearGradient></defs></svg>